<svg width="50" height="50" viewBox="0 0 50 50" fill="inherit" xmlns="http://www.w3.org/2000/svg">
    <path fill-rule="inherit" clip-rule="evenodd" d="M26.5625 8.80078C26.5625 7.93784 25.863 7.23828 25 7.23828C24.1371 7.23828 23.4375 7.93784 23.4375 8.80078V41.199C23.4375 42.0619 24.1371 42.7615 25 42.7615C25.863 42.7615 26.5625 42.0619 26.5625 41.199V8.80078ZM8.33337 10.5005C9.19632 10.5005 9.89587 11.2 9.89587 12.063V37.585C9.89587 38.4479 9.19632 39.1475 8.33337 39.1475C7.47043 39.1475 6.77087 38.4479 6.77087 37.585V12.063C6.77087 11.2 7.47043 10.5005 8.33337 10.5005ZM41.6667 10.5005C42.5297 10.5005 43.2292 11.2 43.2292 12.063V37.585C43.2292 38.4479 42.5297 39.1475 41.6667 39.1475C40.8038 39.1475 40.1042 38.4479 40.1042 37.585V12.063C40.1042 11.2 40.8038 10.5005 41.6667 10.5005ZM18.2292 16.3358C18.2292 15.4729 17.5297 14.7733 16.6667 14.7733C15.8038 14.7733 15.1042 15.4729 15.1042 16.3358V33.6639C15.1042 34.5268 15.8038 35.2264 16.6667 35.2264C17.5297 35.2264 18.2292 34.5268 18.2292 33.6639V16.3358ZM33.3334 18.2531C34.1963 18.2531 34.8959 18.9526 34.8959 19.8156V30.1843C34.8959 31.0472 34.1963 31.7468 33.3334 31.7468C32.4704 31.7468 31.7709 31.0472 31.7709 30.1843V19.8156C31.7709 18.9526 32.4704 18.2531 33.3334 18.2531Z" fill="inherit"/>
</svg>