<svg width="50" height="50" viewBox="0 0 50 50" fill="inherit" xmlns="http://www.w3.org/2000/svg">
    <path d="M43.2999 33.8333C43.8999 32.65 42.9499 31.4333 41.7833 31.4333C41.5333 31.4333 41.2833 31.4833 41.0166 31.6C38.8333 32.65 36.3666 33.25 33.7833 33.25C24.5333 33.25 17.0333 25.75 17.0333 16.5333C17.0333 13.7666 17.7 11.1666 18.8833 8.8833C19.4999 7.6833 18.6 6.3833 17.4333 6.3833C17.2166 6.3833 16.9666 6.4333 16.7333 6.54997C9.49995 9.89997 4.63328 17.35 5.01662 25.7666C5.51662 36.5833 14.4666 45 25.1999 45C25.5166 45 25.8333 45 26.1333 44.9833C33.7166 44.6333 40.1333 40.1666 43.2999 33.8333Z" fill="inherit"/>
</svg>
