<svg width="50" height="50" viewBox="0 0 50 50" fill="inherit" xmlns="http://www.w3.org/2000/svg">
    <path d="M17.7132 29.75H24V41.4799L24 41.533C24 41.9321 23.9999 42.3117 24.0303 42.5942C24.0457 42.7369 24.0769 42.9507 24.1699 43.1586C24.2728 43.389 24.5128 43.7325 24.9812 43.8357C25.4496 43.9388 25.8116 43.7279 26.0019 43.5621C26.1735 43.4125 26.2917 43.2316 26.3656 43.1086C26.5119 42.865 26.6713 42.5205 26.8389 42.1582L26.8612 42.1101L35.0092 24.5104L35.0386 24.4471C35.3092 23.8628 35.5577 23.3262 35.6899 22.8771C35.8317 22.3954 35.9166 21.767 35.5371 21.1731C35.1576 20.5792 34.5516 20.3922 34.0549 20.3185C33.5918 20.2498 33.0005 20.2499 32.3566 20.25L32.2868 20.25H26V8.52012C26 8.50239 26 8.48469 26 8.46702C26.0001 8.06789 26.0002 7.6883 25.9698 7.4058C25.9544 7.26307 25.9232 7.0493 25.8302 6.84138C25.7273 6.61098 25.4873 6.26749 25.0189 6.16432C24.5505 6.06116 24.1885 6.27206 23.9982 6.43788C23.8265 6.58752 23.7084 6.76837 23.6345 6.89144C23.4882 7.13504 23.3288 7.47953 23.1611 7.84175C23.1537 7.85778 23.1463 7.87385 23.1388 7.88994L14.9908 25.4896L14.9615 25.5529C14.6909 26.1372 14.4424 26.6738 14.3102 27.1229C14.1684 27.6046 14.0835 28.233 14.463 28.8269C14.8425 29.4208 15.4485 29.6078 15.9452 29.6815C16.4083 29.7502 16.9996 29.7501 17.6435 29.75L17.7132 29.75ZM24.6247 42.1197C24.6247 42.1197 24.6253 42.1188 24.6266 42.1171C24.6254 42.1189 24.6247 42.1197 24.6247 42.1197ZM26.0256 42.4282C26.0256 42.4283 26.0253 42.4274 26.025 42.4253C26.0254 42.4272 26.0256 42.4282 26.0256 42.4282ZM25.3754 7.88029C25.3754 7.88032 25.3748 7.88115 25.3736 7.88269C25.3748 7.88103 25.3754 7.88026 25.3754 7.88029ZM23.9745 7.57175C23.9745 7.57173 23.9748 7.57268 23.9751 7.57469C23.9747 7.57279 23.9745 7.57178 23.9745 7.57175Z" stroke="inherit" strokeWidth="2"/>
</svg>
