<svg width="50" height="50" viewBox="0 0 50 50" fill="inherit" xmlns="http://www.w3.org/2000/svg">
    <path d="M43.3333 40.0001V10.0001C43.3333 8.15841 41.8416 6.66675 40 6.66675H9.99996C8.15829 6.66675 6.66663 8.15841 6.66663 10.0001V40.0001C6.66663 41.8417 8.15829 43.3334 9.99996 43.3334H40C41.8416 43.3334 43.3333 41.8417 43.3333 40.0001ZM13.3333 26.6667C12.4133 26.6667 11.6666 25.9201 11.6666 25.0001C11.6666 24.0801 12.4133 23.3334 13.3333 23.3334H36.6666C37.5866 23.3334 38.3333 24.0801 38.3333 25.0001C38.3333 25.9201 37.5866 26.6667 36.6666 26.6667H13.3333Z" fill="inherit"/>
</svg>